<?xml version="1.0" encoding="UTF-8" standalone="no" ?>
<!DOCTYPE svg PUBLIC "-//W3C//DTD SVG 1.1//EN" "http://www.w3.org/Graphics/SVG/1.1/DTD/svg11.dtd">
<svg xmlns="http://www.w3.org/2000/svg" xmlns:xlink="http://www.w3.org/1999/xlink" version="1.1" width="1080" height="1080" viewBox="0 0 1080 1080" xml:space="preserve">
<desc>Created with Fabric.js 4.2.0</desc>
<defs>
</defs>
<g transform="matrix(1 0 0 1 540 540)" id="7f5470de-ac62-4e95-a291-636fee249b50"  >
<rect style="stroke: none; stroke-width: 1; stroke-dasharray: none; stroke-linecap: butt; stroke-dashoffset: 0; stroke-linejoin: miter; stroke-miterlimit: 4; fill: rgb(255,255,255); fill-rule: nonzero; opacity: 1;" vector-effect="non-scaling-stroke"  x="-540" y="-540" rx="0" ry="0" width="1080" height="1080" />
</g>
<g transform="matrix(1 0 0 1 540 540)" id="54e629e7-be41-4eb5-ae31-04091bebd53f"  >
</g>
<g transform="matrix(0.87 0 0 0.87 540 540)" id="000751c2-3828-453d-badf-8205c59f71a5"  >
<path style="stroke: rgb(0,0,0); stroke-width: 0; stroke-dasharray: none; stroke-linecap: butt; stroke-dashoffset: 0; stroke-linejoin: miter; stroke-miterlimit: 4; fill: rgb(0,0,0); fill-rule: nonzero; opacity: 1;" vector-effect="non-scaling-stroke"  transform=" translate(-250.81, -77.5)" d="M 17.1 16.5 L 2.5 30.9 L 2.2 89.9 C 2 148 2 149 4 151 C 6 153 7.1 153 64.7 153 L 123.30000000000001 153 L 138.20000000000002 138.3 L 153.00000000000003 123.60000000000001 L 153.00000000000003 64 C 153.00000000000003 19 152.70000000000002 4.100000000000001 151.80000000000004 3.200000000000003 C 150.9 2.3 136 2 91.1 2 L 31.6 2 L 17.1 16.5 z M 128.5 20 L 119.5 29 L 39 29 L 39 11 L 137.5 11 L 128.5 20 z M 144 67 L 144 116 L 126 116 L 126 35.5 L 134.7 26.8 C 139.5 21.9 143.6 18 143.7 18 C 143.89999999999998 18 144 40 144 67 z M 30 78.3 L 30 118.5 L 21 127.5 L 12 136.5 L 12 38 L 30 38 L 30 78.3 z M 117 77 L 117 116 L 39 116 L 39 38 L 117 38 L 117 77 z M 117 135 L 117 144 L 17.5 144 L 26.5 135 L 35.5 126 L 117 126 L 117 135 z M 196 62.5 C 185.5 65.9 178.8 75.7 178.8 87.8 C 178.60000000000002 106.5 189.9 117.3 207.8 115.69999999999999 C 213.8 115.1 221.8 111.69999999999999 223.5 108.99999999999999 C 224.3 107.69999999999999 220.2 101.99999999999999 218.5 101.99999999999999 C 217.7 101.99999999999999 215.4 103.09999999999998 213.4 104.49999999999999 C 202.9 111.59999999999998 190 102.79999999999998 190 88.49999999999999 C 190 82.59999999999998 193.1 75.59999999999998 197.1 72.69999999999999 C 201.29999999999998 69.69999999999999 208.1 69.29999999999998 213 71.89999999999999 C 218.2 74.6 220.1 74.49999999999999 222.3 71.39999999999999 C 224.70000000000002 68.1 224 66.6 218.8 63.89999999999999 C 213.3 61.099999999999994 202.4 60.39999999999999 196 62.49999999999999 z M 319.4 62.9 C 314.9 65.7 313 68.8 313 73.7 C 313 77.8 312.9 78 310 78 C 307.3 78 307 78.3 307 81.1 C 307 83.5 307.6 84.3 310 85.1 L 313 86.19999999999999 L 313 115 L 323 115 L 323 85 L 327.5 85 C 332 85 332 85 332 81.5 C 332 78 332 78 327.5 78 C 323.2 78 323 77.9 323 75.1 C 323 71.39999999999999 325.3 69 329 69 C 331.3 69 332 68.5 332.5 66 C 332.9 64.4 332.9 62.6 332.5 62 C 331.4 60.3 322.7 60.9 319.4 62.9 z M 353.5 61.9 C 346.6 63.6 340 69.1 336.5 76 C 335.5 77.9 334.5 82.4 334.2 86.1 C 333.4 98.19999999999999 338.3 108.6 347.3 113.1 C 355.6 117.39999999999999 369 116.5 375.8 111.39999999999999 C 379.7 108.39999999999999 379.8 107.1 376.5 103.99999999999999 C 374.2 101.79999999999998 373.7 101.69999999999999 371.7 102.99999999999999 C 364.3 107.59999999999998 359.7 108.19999999999999 354 105.09999999999998 C 347.7 101.79999999999998 344 91.89999999999998 345.9 83.59999999999998 C 348.5 72.59999999999998 360.09999999999997 66.69999999999999 368.79999999999995 71.99999999999999 C 373.29999999999995 74.79999999999998 375.49999999999994 74.49999999999999 377.99999999999994 70.99999999999999 L 380.19999999999993 67.99999999999999 L 377.79999999999995 65.99999999999999 C 372.99999999999994 61.899999999999984 361.49999999999994 59.999999999999986 353.49999999999994 61.899999999999984 z M 426 88 L 426 115 L 430.4 115 C 432.79999999999995 115 435 114.5 435.2 114 C 435.4 113.3 436.8 113.5 438.9 114.6 C 443 116.6 450.09999999999997 116 453.9 113.3 C 458.7 109.7 461 104.3 461 96.19999999999999 C 461 88.1 459.5 83.69999999999999 455.7 80.1 C 452.09999999999997 76.8 444.8 76.19999999999999 439.8 78.8 L 436 80.8 L 436 61 L 426 61 L 426 88 z M 448.7 87.7 C 451.3 91.60000000000001 451.09999999999997 101 448.4 104.7 C 445.9 108 441.79999999999995 108.8 438.4 106.5 C 436.2 105.1 436 104.3 436 97 C 436 89.7 436.2 89 438.6 87.1 C 442.40000000000003 84.1 446.5 84.39999999999999 448.70000000000005 87.69999999999999 z M 238.6 78 C 234.9 79.2 230.1 83.6 228.4 87.7 C 226.70000000000002 91.5 226.6 100.7 228.1 104.7 C 231.79999999999998 114.60000000000001 244.79999999999998 118.9 255 113.7 C 262.6 109.9 266.1 101.8 264.5 92.1 C 262.6 80.8 250.8 74.39999999999999 238.6 78 z M 249.5 85.6 C 255.4 87.89999999999999 255.4 105.1 249.5 107.39999999999999 C 241.7 110.3 235.7 102.6 238 92.49999999999999 C 239.4 86.39999999999999 244.1 83.59999999999998 249.5 85.59999999999998 z M 283.3 78.9 C 280.7 80.5 280.1 80.60000000000001 279.6 79.4 C 279.20000000000005 78.5 277.5 78 274.5 78 L 270 78 L 270 115 L 281 115 L 281 101.5 C 281 88.3 281.1 88 283.4 86.5 C 286.9 84.2 291.2 84.9 292.7 88 C 293.5 89.6 294 94.9 294 102.7 L 294 115 L 304 115 L 304 100.6 C 304 87.39999999999999 303.8 86 301.7 82.89999999999999 C 300.5 81.1 298.3 78.99999999999999 297 78.3 C 293.3 76.39999999999999 286.9 76.7 283.3 78.89999999999999 z M 474 79.2 C 468.8 81.9 465.5 86.3 464.6 91.9 C 463.1 101.4 466.90000000000003 110.2 474 113.7 C 480.9 117.2 491.1 116.4 497 112 C 499.2 110.3 499.3 110 498 107.6 C 496.5 104.69999999999999 493.8 104.3 490 106.5 C 484 109.9 476.6 106.8 475.4 100.3 L 474.79999999999995 97.1 L 487.09999999999997 96.8 L 499.49999999999994 96.5 L 499.29999999999995 92.2 C 498.9 83.4 493.29999999999995 77.8 484.29999999999995 77.2 C 479.69999999999993 76.9 477.59999999999997 77.3 473.99999999999994 79.2 z M 384 91.5 C 384 105.9 384.9 109.9 388.9 113.4 C 391.9 116.10000000000001 399.79999999999995 116.7 403.9 114.5 C 406.29999999999995 113.3 407.5 113.1 408.29999999999995 113.9 C 408.9 114.5 411.29999999999995 115 413.69999999999993 115 L 417.99999999999994 115 L 417.99999999999994 78 L 406.99999999999994 78 L 406.99999999999994 91.4 C 406.99999999999994 104.2 406.8999999999999 105 404.79999999999995 106.4 C 401.9 108.5 397.59999999999997 108.4 395.9 106.30000000000001 C 394.9 105.20000000000002 394.4 100.80000000000001 394.2 91.30000000000001 L 393.8 78.00000000000001 L 384 78.00000000000001 L 384 91.50000000000001 z" stroke-linecap="round" />
</g>
</svg>